<svg width="14" height="12" viewBox="0 0 14 12" fill="none" xmlns="http://www.w3.org/2000/svg">
<path d="M9.72727 10.8181V9.72723C9.72727 9.14857 9.4974 8.59362 9.08823 8.18445C8.67906 7.77528 8.12411 7.54541 7.54545 7.54541H3.18182C2.60316 7.54541 2.04821 7.77528 1.63904 8.18445C1.22987 8.59362 1 9.14857 1 9.72723V10.8181" stroke="#7B7B7B" stroke-linecap="round" stroke-linejoin="round"/>
<path d="M5.36364 5.36364C6.56863 5.36364 7.54546 4.3868 7.54546 3.18182C7.54546 1.97683 6.56863 1 5.36364 1C4.15866 1 3.18182 1.97683 3.18182 3.18182C3.18182 4.3868 4.15866 5.36364 5.36364 5.36364Z" stroke="#7B7B7B" stroke-linecap="round" stroke-linejoin="round"/>
<path d="M13 10.8182V9.72724C12.9997 9.24382 12.8388 8.77421 12.5426 8.39214C12.2464 8.01007 11.8317 7.73719 11.3636 7.61633" stroke="#7B7B7B" stroke-linecap="round" stroke-linejoin="round"/>
<path d="M9.18182 1.07092C9.65114 1.19109 10.0671 1.46403 10.3642 1.84673C10.6612 2.22942 10.8225 2.7001 10.8225 3.18456C10.8225 3.66902 10.6612 4.13969 10.3642 4.52239C10.0671 4.90509 9.65114 5.17803 9.18182 5.2982" stroke="#7B7B7B" stroke-linecap="round" stroke-linejoin="round"/>
</svg>
